<svg width="24" height="24" viewBox="0 0 24 24" fill="none" xmlns="http://www.w3.org/2000/svg">
<circle cx="12" cy="12" r="12" fill="#2D69EB"/>
<path fill-rule="evenodd" clip-rule="evenodd" d="M12 6.66675C12.1768 6.66675 12.3463 6.73699 12.4714 6.86202C12.5964 6.98705 12.6666 7.15663 12.6666 7.33345V11.3336H16.6666C16.8434 11.3336 17.013 11.4039 17.138 11.5289C17.2631 11.6539 17.3333 11.8235 17.3333 12.0003C17.3333 12.1772 17.2631 12.3467 17.138 12.4718C17.013 12.5968 16.8434 12.667 16.6666 12.667H12.6666V16.6672C12.6666 16.8441 12.5964 17.0136 12.4714 17.1387C12.3463 17.2637 12.1768 17.3339 12 17.3339C11.8231 17.3339 11.6536 17.2637 11.5286 17.1387C11.4035 17.0136 11.3333 16.8441 11.3333 16.6672V12.667H7.33329C7.15648 12.667 6.98691 12.5968 6.86189 12.4718C6.73686 12.3467 6.66663 12.1772 6.66663 12.0003C6.66663 11.8235 6.73686 11.6539 6.86189 11.5289C6.98691 11.4039 7.15648 11.3336 7.33329 11.3336H11.3333V7.33345C11.3333 7.15663 11.4035 6.98705 11.5286 6.86202C11.6536 6.73699 11.8231 6.66675 12 6.66675Z" fill="white"/>
</svg>
