<svg width="24" height="24" viewBox="0 0 24 24" fill="none" xmlns="http://www.w3.org/2000/svg">
<rect width="24" height="24" rx="4" fill="#30363E"/>
<path fill-rule="evenodd" clip-rule="evenodd" d="M5.8125 8.56266C5.8125 8.38031 5.88493 8.20543 6.01386 8.0765C6.1428 7.94756 6.31766 7.87512 6.5 7.87512H17.5C17.6823 7.87512 17.8572 7.94756 17.9861 8.0765C18.1151 8.20543 18.1875 8.38031 18.1875 8.56266C18.1875 8.745 18.1151 8.91988 17.9861 9.04881C17.8572 9.17775 17.6823 9.25019 17.5 9.25019H6.5C6.31766 9.25019 6.1428 9.17775 6.01386 9.04881C5.88493 8.91988 5.8125 8.745 5.8125 8.56266ZM7.875 12.0003C7.875 11.818 7.94743 11.6431 8.07636 11.5142C8.2053 11.3852 8.38016 11.3128 8.5625 11.3128H15.4375C15.6198 11.3128 15.7947 11.3852 15.9236 11.5142C16.0526 11.6431 16.125 11.818 16.125 12.0003C16.125 12.1827 16.0526 12.3575 15.9236 12.4865C15.7947 12.6154 15.6198 12.6879 15.4375 12.6879H8.5625C8.38016 12.6879 8.2053 12.6154 8.07636 12.4865C7.94743 12.3575 7.875 12.1827 7.875 12.0003ZM9.9375 15.438C9.9375 15.2556 10.0099 15.0808 10.1389 14.9518C10.2678 14.8229 10.4427 14.7505 10.625 14.7505H13.375C13.5573 14.7505 13.7322 14.8229 13.8611 14.9518C13.9901 15.0808 14.0625 15.2556 14.0625 15.438C14.0625 15.6203 13.9901 15.7952 13.8611 15.9241C13.7322 16.0531 13.5573 16.1255 13.375 16.1255H10.625C10.4427 16.1255 10.2678 16.0531 10.1389 15.9241C10.0099 15.7952 9.9375 15.6203 9.9375 15.438Z" fill="white"/>
</svg>
